HIERARCHY
ROOT RootJoint
{
    OFFSET   0.000000   0.000000   0.000000
    CHANNELS 6 Xposition Yposition Zposition Xrotation Yrotation Zrotation
    JOINT pelvis_lowerback
    {
        OFFSET   0.000000   0.093605   0.000000
        CHANNELS 3 Xrotation Yrotation Zrotation
        JOINT lowerback_torso
        {
            OFFSET   0.000000   0.100000   0.000000
            CHANNELS 3 Xrotation Yrotation Zrotation
            JOINT torso_head
            {
                OFFSET   0.000000   0.282350   0.000000
                CHANNELS 3 Xrotation Yrotation Zrotation
                End Site
                {
                    OFFSET   0.000000   0.192650   0.000000
                }
            }
            JOINT rTorso_Clavicle
            {
                OFFSET  -0.001000   0.157500   0.000000
                CHANNELS 3 Xrotation Yrotation Zrotation
                JOINT rShoulder
                {
                    OFFSET  -0.117647   0.000000   0.000000
                    CHANNELS 3 Xrotation Yrotation Zrotation
                    JOINT rElbow
                    {
                        OFFSET  -0.245000   0.000000   0.000000
                        CHANNELS 3 Xrotation Yrotation Zrotation
                        JOINT rWrist
                        {
                            OFFSET  -0.240000   0.000000   0.000000
                            CHANNELS 3 Xrotation Yrotation Zrotation
                            End Site
                            {
                                OFFSET  -0.116353  -0.002500   0.000000
                            }
                        }
                    }
                }
            }
            JOINT lTorso_Clavicle
            {
                OFFSET   0.001000   0.157500   0.000000
                CHANNELS 3 Xrotation Yrotation Zrotation
                JOINT lShoulder
                {
                    OFFSET   0.117647   0.000000   0.000000
                    CHANNELS 3 Xrotation Yrotation Zrotation
                    JOINT lElbow
                    {
                        OFFSET   0.245000   0.000000   0.000000
                        CHANNELS 3 Xrotation Yrotation Zrotation
                        JOINT lWrist
                        {
                            OFFSET   0.240000   0.000000   0.000000
                            CHANNELS 3 Xrotation Yrotation Zrotation
                            End Site
                            {
                                OFFSET   0.116353  -0.002500   0.000000
                            }
                        }
                    }
                }
            }
        }
    }
    JOINT rHip
    {
        OFFSET  -0.100000  -0.051395   0.000000
        CHANNELS 3 Xrotation Yrotation Zrotation
        JOINT rKnee
        {
            OFFSET   0.000000  -0.410000   0.000000
            CHANNELS 3 Xrotation Yrotation Zrotation
            JOINT rAnkle
            {
                OFFSET   0.000000  -0.390000   0.000000
                CHANNELS 3 Xrotation Yrotation Zrotation
                JOINT rToeJoint
                {
                    OFFSET   0.000000  -0.050000   0.130000
                    CHANNELS 3 Xrotation Yrotation Zrotation
                    End Site
                    {
                        OFFSET  -0.010000   0.002000   0.060000
                    }
                }
            }
        }
    }
    JOINT lHip
    {
        OFFSET   0.100000  -0.051395   0.000000
        CHANNELS 3 Xrotation Yrotation Zrotation
        JOINT lKnee
        {
            OFFSET   0.000000  -0.410000   0.000000
            CHANNELS 3 Xrotation Yrotation Zrotation
            JOINT lAnkle
            {
                OFFSET   0.000000  -0.390000   0.000000
                CHANNELS 3 Xrotation Yrotation Zrotation
                JOINT lToeJoint
                {
                    OFFSET   0.000000  -0.050000   0.130000
                    CHANNELS 3 Xrotation Yrotation Zrotation
                    End Site
                    {
                        OFFSET   0.010000   0.002000   0.060000
                    }
                }
            }
        }
    }
}
MOTION
Frames: 8
Frame Time:   0.008333
 -2.636192   0.932563   3.933049 -74.876373  73.360772  61.384663   9.879545  -1.719579   3.113818  -1.074724  -2.970684   5.498346   2.107572  -1.062546   3.199530  -3.303985  -0.278973  -8.640460 -26.064294   4.002411  18.030121   0.105855  82.872573  -0.101260   2.505231   8.202729 -18.672656  -4.772663  -8.548703   7.528829 -30.239187  -7.543914 -24.849881   0.144254 -86.281432   0.133717  -0.685806 -10.018195  19.795203 -47.964339  -4.999710  -5.818601 106.552480   0.024794   0.007546  -4.144559  -6.252839   8.355693  -1.657300   0.000764  -0.002007   7.646700  -5.761209   9.444763  16.382985  -0.000836  -0.006250  -7.453761  -7.954478  -0.178519   1.233812   0.000189   0.000062
 -2.635521   0.933830   3.932661 -76.951656  73.403718  62.981715  10.209428  -1.915254   3.395323  -0.953336  -2.977610   5.602663   2.149072  -1.056480   3.251142  -3.231181  -0.794658  -8.357667 -25.471406   3.510080  18.230226   0.091754  82.992223  -0.087732   2.585787   8.239140 -18.239567  -4.594414  -8.305551   7.341341 -29.793962  -7.422404 -25.557355   0.160530 -86.670932   0.149092  -0.741076  -9.850830  19.393169 -49.917751  -5.209321  -6.069714 107.244171   0.021372   0.005854  -4.407985  -5.782882   8.650712  -1.801704   0.000951  -0.002571   8.149732  -5.771979  10.013530  15.757742  -0.000827  -0.007396  -6.928618  -8.450631  -0.405028   1.402334   0.000504  -0.000041
 -2.634676   0.934997   3.932309 -78.993015  73.383276  64.554843  10.557412  -2.092684   3.681180  -0.817920  -2.980586   5.703458   2.190932  -1.052031   3.299290  -3.166312  -1.304682  -8.075637 -24.916179   3.022148  18.419043   0.078478  83.085791  -0.074998   2.636306   8.197946 -17.864369  -4.412283  -8.047045   7.130791 -29.359512  -7.291042 -26.231805   0.175722 -87.041053   0.163788  -0.784436  -9.723726  19.006160 -51.866928  -5.423860  -6.372190 107.916404   0.018224   0.004419  -4.655443  -5.342700   8.930020  -1.937918   0.001116  -0.002915   8.683055  -5.753881  10.568777  15.174783  -0.000788  -0.008116  -6.436152  -8.912348  -0.616153   1.573507   0.000747  -0.000084
 -2.633639   0.936073   3.932037 -81.028405  73.307756  66.125402  10.908345  -2.259312   3.963105  -0.666756  -2.986914   5.806723   2.234135  -1.047756   3.346296  -3.102023  -1.799517  -7.799275 -24.392182   2.551668  18.600455   0.066779  83.165755  -0.063783   2.669752   8.113183 -17.517891  -4.231209  -7.792789   6.915380 -28.941963  -7.159714 -26.868326   0.188270 -87.382806   0.176258  -0.829220  -9.590516  18.626510 -53.767406  -5.613807  -6.689822 108.546094   0.015598   0.003332  -4.889143  -4.932351   9.192466  -2.068914   0.001207  -0.003139   9.241665  -5.724177  11.119639  14.643477  -0.000716  -0.008460  -5.976567  -9.344906  -0.809008   1.730287   0.000891  -0.000085
 -2.632406   0.937065   3.931858 -83.055840  73.187929  67.693421  11.251806  -2.418448   4.235780  -0.509002  -2.998620   5.910715   2.277470  -1.043753   3.391516  -3.037681  -2.273938  -7.531122 -23.897714   2.103384  18.775464   0.056637  83.236422  -0.054065   2.694201   8.007368 -17.186153  -4.054901  -7.550235   6.703665 -28.544683  -7.034621 -27.467189   0.198149 -87.698916   0.186377  -0.876548  -9.447312  18.252586 -55.600615  -5.772977  -7.010958 109.130507   0.013476   0.002559  -5.109900  -4.550172   9.438443  -2.194405   0.001222  -0.003275   9.814864  -5.686232  11.666550  14.163880  -0.000626  -0.008530  -5.545736  -9.750626  -0.983878   1.873715   0.000963  -0.000055
 -2.631011   0.938060   3.931762 -85.056845  73.039695  69.255343  11.577441  -2.572147   4.486124  -0.354696  -3.016054   6.010196   2.319012  -1.040121   3.434428  -2.972835  -2.726229  -7.266792 -23.430799   1.678070  18.946687   0.047952  83.300620  -0.045741   2.714995   7.895557 -16.865524  -3.884477  -7.321420   6.495034 -28.168095  -6.917426 -28.031018   0.205777 -87.992486   0.194451  -0.923246  -9.302652  17.885426 -57.358806  -5.898596  -7.334090 109.666078   0.011739   0.002059  -5.318418  -4.194430   9.668595  -2.314357   0.001183  -0.003349  10.405794  -5.644523  12.196758  13.710476  -0.000533  -0.008468  -5.273942 -10.138333  -1.144487   1.071393  -0.000384  -0.000206
 -2.629480   0.939014   3.931742 -87.015337  72.872259  70.784989  11.882267  -2.718827   4.726693  -0.209436  -3.037073   6.105872   2.357912  -1.036797   3.474258  -2.910016  -3.153892  -7.016996 -22.992356   1.277914  19.109940   0.040505  83.358806  -0.038609   2.732191   7.778730 -16.557437  -3.722790  -7.107506   6.297496 -27.813987  -6.809797 -28.559384   0.211890 -88.265587   0.201172  -0.969485  -9.157254  17.530490 -59.040354  -6.000529  -7.646218 110.161816   0.010332   0.001766  -5.515101  -3.863006   9.883988  -2.428330   0.001103  -0.003370  10.998389  -5.607754  12.719710  13.277820  -0.000436  -0.008292  -5.028213 -10.514845  -1.293895   0.313037  -0.001303  -0.000333
 -2.627894   0.939869   3.931515 -88.927373  72.784758  72.328100  12.122184  -2.910299   4.988621  -0.135889  -3.081781   6.161395   2.403957  -1.101473   3.524510  -2.871117  -3.498141  -6.790241 -22.590601   0.857583  19.316874   0.026374  83.148137  -0.025413   2.771300   7.837143 -16.249157  -3.599098  -6.761167   6.101649 -27.403290  -6.700010 -29.377291   0.231049 -88.574986   0.220048  -1.046835  -9.040719  17.236669 -60.837138  -6.128010  -8.134643 110.722629   0.008755   0.001241  -5.715125  -3.582296  10.028388  -2.455466   0.000918  -0.002832  11.451103  -5.589415  13.173840  12.901441  -0.000412  -0.008009  -4.829486 -10.915843  -1.459297  -0.296928  -0.001989  -0.000387
